<?xml version="1.0" encoding="utf-8"?>
<!-- Generator: Adobe Illustrator 21.0.2, SVG Export Plug-In . SVG Version: 6.00 Build 0)  -->
<svg version="1.1" id="Layer_1" xmlns="http://www.w3.org/2000/svg" xmlns:xlink="http://www.w3.org/1999/xlink" x="0px" y="0px"
	 viewBox="0 0 512 512" width="316.227766017" height="316.227766017" style="enable-background:new 0 0 512 512;" xml:space="preserve">
<style type="text/css">
	.st0{fill:#231F20;}
	.st1{fill:#FDB913;}
	.st2{fill:#FFFFFF;}
</style>
<polygon class="st0" points="128,477.8 0,256 128,34.2 384,34.2 512,256 384,477.8 "/>
<polygon class="st1" points="152.6,435.1 49.2,256 152.6,76.9 359.4,76.9 462.8,256 359.4,435.1 "/>
<path class="st2" d="M154.8,431.4h202.5L458.5,256L357.2,80.6H154.8L53.5,256L154.8,431.4z M361.5,438.9H150.5L44.9,256l1.1-1.9
	l104.5-181h211.1l1.1,1.9l104.5,181L361.5,438.9z"/>
<polygon class="st0" points="226.3,172.4 285.5,172.4 317.1,93.1 402.6,266.9 310.1,321.6 280.4,418.9 231.6,418.9 202,321.4 
	109.4,266.9 194.8,93.1 "/>
<path class="st2" d="M238.5,279.4l-43.6-46.8v46.8H238.5z M317.1,232.6v46.8h-43.7L317.1,232.6z"/>
</svg>
